flac 8

ripped from my silver cd

fingerprints included

I don´t have a scanner, so I can´t scan  the covers

good soundboard recording

Odd Fellow Palæet in Copenhagen, Denmark, 5 October 1982.

1. Black Funeral
2. Curse Of The Pharaohs
3. Into The Coven
4. A Corpse Without Soul
5. Return Of The Vampire
6. Devil Eyes
7. Nightmare (not the same that is on DBTO, really another song)
8. Nuns Have No Fun
9. Satan's Fall

Information ripping to FLAC, 'Track 1' to 'D:Mercyful Fate - Return Of The Living Dead 1 - Black Funeral.flac'
   Track 1:  Ripped LBA 0 to 16868 (3:44) in 0:32. Filename: D:Mercyful Fate - Return Of The Living Dead 1 - Black Funeral.flac
     Secure  [Pass 1 & 2]
     CRC32: 5F1028FF
   
Information ripping to FLAC, 'Track 2' to 'D:Mercyful Fate - Return Of The Living Dead 2 - Curse Of The Pharaohs.flac'
   Track 2:  Ripped LBA 16868 to 37633 (4:36) in 0:26. Filename: D:Mercyful Fate - Return Of The Living Dead 2 - Curse Of The Pharaohs.flac
     Secure  [Pass 1 & 2]
     CRC32: 0EA56ABB
   
Information ripping to FLAC, 'Track 3' to 'D:Mercyful Fate - Return Of The Living Dead 3 - into The Coven.flac'
   Track 3:  Ripped LBA 37633 to 55680 (4:00) in 0:21. Filename: D:Mercyful Fate - Return Of The Living Dead 3 - into The Coven.flac
     Secure  [Pass 1 & 2]
     CRC32: A695117E
   
Information ripping to FLAC, 'Track 4' to 'D:Mercyful Fate - Return Of The Living Dead 4 - A Corpse Without A Soul.flac'
   Track 4:  Ripped LBA 55680 to 92448 (8:10) in 0:39. Filename: D:Mercyful Fate - Return Of The Living Dead 4 - A Corpse Without A Soul.flac
     Secure  [Pass 1 & 2]
     CRC32: 8AE4E23F
   
Information ripping to FLAC, 'Track 5' to 'D:Mercyful Fate - Return Of The Living Dead 5 - Return Of The Vampire.flac'
   Track 5:  Ripped LBA 92448 to 113048 (4:34) in 0:21. Filename: D:Mercyful Fate - Return Of The Living Dead 5 - Return Of The Vampire.flac
     Secure (Warning)  [Pass 1 & 2, Re-Rip 3 Frames]
     CRC32: 6BC9E9CE
   
Information ripping to FLAC, 'Track 6' to 'D:Mercyful Fate - Return Of The Living Dead 6 - Devil Eyes.flac'
   Track 6:  Ripped LBA 113048 to 136975 (5:19) in 0:22. Filename: D:Mercyful Fate - Return Of The Living Dead 6 - Devil Eyes.flac
     Secure  [Pass 1 & 2]
     CRC32: 429EE670
   
Information ripping to FLAC, 'Track 7' to 'D:Mercyful Fate - Return Of The Living Dead 7 - Nightmare.flac'
   Track 7:  Ripped LBA 136975 to 166928 (6:39) in 0:25. Filename: D:Mercyful Fate - Return Of The Living Dead 7 - Nightmare.flac
     Secure  [Pass 1 & 2]
     CRC32: F9505CF5
   
Information ripping to FLAC, 'Track 8' to 'D:Mercyful Fate - Return Of The Living Dead 8 - Nuns Have No Fun.flac'
   Track 8:  Ripped LBA 166928 to 185365 (4:05) in 0:15. Filename: D:Mercyful Fate - Return Of The Living Dead 8 - Nuns Have No Fun.flac
     Secure  [Pass 1 & 2]
     CRC32: AA848381
   
Information ripping to FLAC, 'Track 9' to 'D:Mercyful Fate - Return Of The Living Dead 9 - Satan's Fall.flac'
   Track 9:  Ripped LBA 185365 to 243375 (12:53) in 0:44. Filename: D:Mercyful Fate - Return Of The Living Dead 9 - Satan's Fall.flac
     Secure  [Pass 1 & 2]
     CRC32: B3806868
   